<?xml version="1.0" encoding="UTF-8" standalone="no"?><!-- Generator: Gravit.io --><svg xmlns="http://www.w3.org/2000/svg" xmlns:xlink="http://www.w3.org/1999/xlink" style="isolation:isolate" viewBox="0 0 1920 1280" width="1920pt" height="1280pt"><defs><clipPath id="_clipPath_DJ4pDecnKPrxiSTSV2btUbguqHtM0Esg"><rect width="1920" height="1280"/></clipPath></defs><g clip-path="url(#_clipPath_DJ4pDecnKPrxiSTSV2btUbguqHtM0Esg)"><rect x="345" y="37" width="1230" height="1195" transform="matrix(1,0,0,1,0,0)" fill="rgb(0,150,136)"/><mask id="_mask_rzB2EYacdvfSJU2PoRvDfefFFGBwpg2C"><rect x="404" y="179" width="415" height="146" fill="white" stroke="none"/></mask><rect x="404" y="179" width="415" height="146" transform="matrix(1,0,0,1,0,0)" fill="rgb(235,235,235)"/><rect x="404" y="179" width="415" height="146" transform="matrix(1,0,0,1,0,0)" fill="rgb(235,235,235)" mask="url(#_mask_rzB2EYacdvfSJU2PoRvDfefFFGBwpg2C)" vector-effect="non-scaling-stroke" stroke-width="2" stroke="rgb(0,0,0)" stroke-linejoin="round" stroke-linecap="round" stroke-miterlimit="2"/><mask id="_mask_EkKsIa2thbymN93VTp170091dayHixDZ"><rect x="1129" y="471" width="415" height="146" fill="white" stroke="none"/></mask><rect x="1129" y="471" width="415" height="146" transform="matrix(1,0,0,1,0,0)" fill="rgb(0,255,0)"/><rect x="1129" y="471" width="415" height="146" transform="matrix(1,0,0,1,0,0)" fill="rgb(0,255,0)" mask="url(#_mask_EkKsIa2thbymN93VTp170091dayHixDZ)" vector-effect="non-scaling-stroke" stroke-width="2" stroke="rgb(0,0,0)" stroke-linejoin="round" stroke-linecap="round" stroke-miterlimit="2"/><g clip-path="url(#_clipPath_FBF3Wf9tgyvTXTVJuM15BXQwkQBdwQmm)"><text transform="matrix(1,0,0,1,438,221.446)" style="font-family:'Open Sans';font-weight:400;font-size:21px;font-style:normal;fill:#000000;stroke:none;">Mãe</text></g><defs><clipPath id="_clipPath_FBF3Wf9tgyvTXTVJuM15BXQwkQBdwQmm"><rect x="0" y="0" width="173.5" height="40" transform="matrix(1,0,0,1,438,199)"/></clipPath></defs><g clip-path="url(#_clipPath_aO0zEEvoxVfKlUrQQlzXq8qZ4ySm5loO)"><text transform="matrix(1,0,0,1,454,274.446)" style="font-family:'Open Sans';font-weight:400;font-size:21px;font-style:normal;fill:#464646;stroke:none;">bom dia, tudo bom?</text></g><defs><clipPath id="_clipPath_aO0zEEvoxVfKlUrQQlzXq8qZ4ySm5loO"><rect x="0" y="0" width="323" height="47" transform="matrix(1,0,0,1,454,252)"/></clipPath></defs><g clip-path="url(#_clipPath_YxzJ3FEuPn7WQ2iTJeFZrl0QpdmQR8JX)"><text transform="matrix(1,0,0,1,1195.5,539.946)" style="font-family:'Open Sans';font-weight:400;font-size:21px;font-style:normal;fill:#000000;stroke:none;">tudo sim, e com você?</text></g><defs><clipPath id="_clipPath_YxzJ3FEuPn7WQ2iTJeFZrl0QpdmQR8JX"><rect x="0" y="0" width="282" height="53" transform="matrix(1,0,0,1,1195.5,517.5)"/></clipPath></defs></g></svg>